<?xml version="1.0" standalone="no"?>
<!DOCTYPE svg PUBLIC "-//W3C//DTD SVG 20010904//EN"
 "http://www.w3.org/TR/2001/REC-SVG-20010904/DTD/svg10.dtd">
<svg version="1.0" xmlns="http://www.w3.org/2000/svg"
 width="300.000000pt" height="300.000000pt" viewBox="0 0 204.000000 204.000000"
 preserveAspectRatio="xMidYMid meet">

<g transform="translate(0.000000,204.000000) scale(0.100000,-0.100000)"
fill="#000000" stroke="none">
<path d="M1280 1689 c-62 -11 -167 -57 -218 -96 l-34 -26 -37 22 c-99 60 -171
80 -282 81 -182 0 -350 -104 -430 -266 -32 -65 -34 -74 -33 -174 1 -100 1
-102 -6 -30 l-6 75 -2 -70 c-1 -39 5 -98 13 -130 16 -63 65 -152 101 -186 16
-15 14 -6 -13 48 -108 223 -26 462 195 566 59 28 77 32 153 32 79 0 91 -3 162
-38 42 -21 77 -41 77 -45 0 -4 -11 -34 -25 -67 -28 -68 -32 -148 -11 -199 19
-47 76 -87 131 -94 l45 -5 -6 76 c-7 83 -1 124 19 124 29 0 117 38 117 50 0 8
-9 32 -21 54 -24 48 -20 54 48 91 125 67 255 54 343 -33 81 -82 113 -171 108
-302 -3 -79 -8 -102 -36 -161 -71 -151 -302 -469 -541 -746 -74 -85 -67 -81
79 46 216 188 442 435 552 603 141 216 121 494 -48 671 -66 69 -131 106 -221
125 -76 16 -94 17 -173 4z"/>
<path d="M490 819 c-7 -12 -18 -18 -26 -15 -8 3 -14 -1 -14 -9 0 -8 -12 -21
-27 -29 l-28 -15 41 -1 c39 0 44 -3 73 -48 17 -27 31 -53 31 -58 0 -5 -30 -23
-67 -39 -58 -26 -64 -30 -41 -33 15 -2 53 2 85 8 l58 10 33 -35 c30 -31 48
-40 69 -32 16 5 8 41 -14 67 -28 34 -29 51 -3 125 30 87 24 95 -22 32 -23 -31
-47 -57 -53 -57 -6 0 -28 18 -49 39 -35 35 -38 43 -32 75 8 40 2 46 -14 15z"/>
</g>
</svg>
